<?xml version="1.0" encoding="UTF-8" standalone="no"?>
<svg width="31px" height="31px" viewBox="0 0 31 31" version="1.1" xmlns="http://www.w3.org/2000/svg" xmlns:xlink="http://www.w3.org/1999/xlink" xmlns:sketch="http://www.bohemiancoding.com/sketch/ns">
    <!-- Generator: Sketch 3.2.2 (9983) - http://www.bohemiancoding.com/sketch -->
    <title>Slice 1</title>
    <desc>Created with Sketch.</desc>
    <defs></defs>
    <g id="Page-1" stroke="none" stroke-width="1" fill="none" fill-rule="evenodd" sketch:type="MSPage">
        <g id="noun_57113_cc" sketch:type="MSLayerGroup" fill="#000000">
            <g id="Group" sketch:type="MSShapeGroup">
                <path d="M12.925,24.16 C6.302,24.16 0.914,18.772 0.914,12.15 C0.914,5.528 6.302,0.139 12.925,0.139 C19.548,0.139 24.935,5.527 24.935,12.15 C24.935,18.773 19.547,24.16 12.925,24.16 L12.925,24.16 Z M12.925,3.139 C7.956,3.139 3.914,7.181 3.914,12.15 C3.914,17.118 7.956,21.16 12.925,21.16 C17.893,21.16 21.935,17.118 21.935,12.15 C21.935,7.181 17.893,3.139 12.925,3.139 L12.925,3.139 Z" id="Shape"></path>
                <path d="M29.305,30.311 C28.921,30.311 28.537,30.165 28.244,29.872 L19.24,20.868 C18.654,20.283 18.654,19.332 19.24,18.747 C19.826,18.161 20.775,18.161 21.361,18.747 L30.365,27.751 C30.951,28.336 30.951,29.287 30.365,29.872 C30.072,30.165 29.688,30.311 29.305,30.311 L29.305,30.311 Z" id="Shape"></path>
            </g>
        </g>
    </g>
</svg>